<svg id="Layer_1" data-name="Layer 1" xmlns="http://www.w3.org/2000/svg" viewBox="0 0 200 200"><defs><style>.cls-1{fill:#f1faee;}.cls-2{fill:#e63946;}.cls-3{fill:#1d3557;}</style></defs><rect class="cls-1" width="200" height="200" rx="35.81"/><path class="cls-1" d="M154.78,131.81l-1.36-.22a82,82,0,0,1-9.19,11.67,109,109,0,0,1-7.92,7.61,126,126,0,0,1-10.47,8c-3.67,2.49-7.67,4.9-11.89,7.31-1.27.67-2.64,1.43-4,2.1-2.94,1.51-6.1,3.1-9.26,4.45a99,99,0,0,1-9.19-4.45c-1.2-.59-2.41-1.28-3.61-2a115.48,115.48,0,0,1-12.21-7.45c-3.61-2.49-7-5-10.16-7.69a79.5,79.5,0,0,1-8.29-7.82A72.75,72.75,0,0,1,48,131.59c3.08-.61,6.16-1.13,9.26-1.59,2.78-.37,5.49-.74,8.29-1.05,3.39-.45,6.78-.75,10.16-1.06,4.07-.37,8.13-.59,12.21-.75,1.2-.07,2.41-.15,3.61-.15,6.17-.22,12.35-.22,18.45,0,1.35.08,2.64.08,4,.23,4,.08,8,.3,11.89.67,3.47.31,6.94.68,10.47,1.06,2.65.31,5.29.68,7.92,1.05C147.76,130.53,151.23,131.14,154.78,131.81Z"/><path class="cls-1" d="M161.62,40.29V58c-5.79-1.21-11.59-2.27-17.39-3.1-2.63-.37-5.27-.76-7.92-1-3.53-.46-7-.83-10.47-1.14-3.9-.37-7.9-.59-11.89-.67-1.35-.15-2.64-.15-4-.23-6.1-.22-12.28-.22-18.45,0-1.2,0-2.41.08-3.61.15-4.08.16-8.14.38-12.21.75-3.38.31-6.77.61-10.16,1.06-2.8.31-5.51.68-8.29,1.06Q48.53,56.19,39.84,58V40.29a156.15,156.15,0,0,1,17.4-7.37c2.78-1,5.49-1.89,8.29-2.63A80.4,80.4,0,0,1,75.69,27.8,97,97,0,0,1,87.9,25.91c1.2-.15,2.41-.29,3.61-.37a126.24,126.24,0,0,1,18.45,0,36.08,36.08,0,0,1,4,.45,89.8,89.8,0,0,1,11.89,1.81c3.47.67,7,1.57,10.47,2.55,2.65.76,5.29,1.66,7.92,2.57A156.81,156.81,0,0,1,161.62,40.29Z"/><path class="cls-2" d="M65.53,30.29V53.78c-2.8.31-5.51.68-8.29,1.06Q48.53,56.19,39.84,58V40.29a156.15,156.15,0,0,1,17.4-7.37C60,31.94,62.73,31,65.53,30.29Z"/><path class="cls-2" d="M135.93,30.29V53.78c2.79.31,5.51.68,8.29,1.06q8.72,1.35,17.4,3.17V40.29a156.15,156.15,0,0,0-17.4-7.37C141.44,31.94,138.72,31,135.93,30.29Z"/><path class="cls-2" d="M65.53,129v22.21a79.5,79.5,0,0,1-8.29-7.82A72.75,72.75,0,0,1,48,131.59c3.08-.61,6.16-1.13,9.26-1.59C60,129.63,62.73,129.26,65.53,129Z"/><path class="cls-2" d="M114,26V52.05c-1.35-.15-2.64-.15-4-.23-6.1-.22-12.28-.22-18.45,0-1.2,0-2.41.08-3.61.15V25.91c1.2-.15,2.41-.29,3.61-.37a126.24,126.24,0,0,1,18.45,0A36.08,36.08,0,0,1,114,26Z"/><path class="cls-2" d="M114,127.22v38.94c-1.27.67-2.64,1.43-4,2.1-2.94,1.51-6.1,3.1-9.26,4.45a99,99,0,0,1-9.19-4.45c-1.2-.59-2.41-1.28-3.61-2V127.14c1.2-.07,2.41-.15,3.61-.15,6.17-.22,12.35-.22,18.45,0C111.31,127.07,112.6,127.07,114,127.22Z"/><path class="cls-2" d="M154.78,131.81l-1.36-.22a82,82,0,0,1-9.19,11.67,109,109,0,0,1-7.92,7.61V129c2.65.31,5.29.68,7.92,1.05C147.76,130.53,151.23,131.14,154.78,131.81Z"/><path class="cls-3" d="M173.83,136a91.15,91.15,0,0,1-8.43,13.11c-1.13,1.36-2.33,2.79-3.47,4.22-1.51,1.88-3.31,3.61-5.13,5.49a127,127,0,0,1-14,12.35c-.45.31-.9.69-1.36,1.06-2.64,2-5.35,3.77-8.21,5.65A206.23,206.23,0,0,1,102.8,194.1l-.14.08-1.82.82h-.14l-1.82-.9C64.16,178.81,40.29,159.22,27.71,136l.68-.22h.08c3.24-.84,6.4-1.59,9.63-2.27.61-.14,1.14-.22,1.74-.37l7.08-1.36a5.34,5.34,0,0,1,1.06-.14,72.75,72.75,0,0,0,9.26,11.75,79.5,79.5,0,0,0,8.29,7.82c3.16,2.65,6.55,5.2,10.16,7.69A115.48,115.48,0,0,0,87.9,166.3c1.2.68,2.41,1.37,3.61,2a99,99,0,0,0,9.19,4.45c3.16-1.35,6.32-2.94,9.26-4.45,1.35-.67,2.72-1.43,4-2.1,4.22-2.41,8.22-4.82,11.89-7.31a126,126,0,0,0,10.47-8,109,109,0,0,0,7.92-7.61,82,82,0,0,0,9.19-11.67l1.36.22c2.92.53,5.86,1.12,8.74,1.73C167,134.3,170.44,135.05,173.83,136Z"/><path class="cls-3" d="M113.65,95a1.72,1.72,0,0,0-.6,1.81l.9,2.79,5.88,18c.22.67-.08.9-.68.45l-5.2-3.77-12.43-9a1.69,1.69,0,0,0-2,0l-11.6,8.44-6,4.37c-.61.45-.83.22-.61-.45L87.89,97l.08-.22a1.34,1.34,0,0,0-.08-.91,1.78,1.78,0,0,0-.53-.9L69.74,82.1c-.6-.38-.45-.68.23-.68H91.73a2,2,0,0,0,1.66-1.2l6.78-20.79c.15-.6.53-.6.75,0l6.7,20.79a2,2,0,0,0,1.59,1.2h21.84c.75,0,.83.3.22.68L114,94.75Z"/><path class="cls-3" d="M176.46,107.11,178.57,129c.08.6-.22.75-.75.23l-5.95-6.71-8.44-9.71c0-.08-.07-.08-.22-.15a2.35,2.35,0,0,0-1.73-.31l-7.39,3.24L141.52,121c-.68.22-.91.07-.53-.61l11.15-18.75a1.51,1.51,0,0,0-.3-1.88L137.45,83.31c-.38-.68-.15-.83.45-.76L155,86.39l4.22.91a1.87,1.87,0,0,0,1.88-.6l2.33-4.22,8.82-14.61c.37-.61.6-.53.75.22l.83,9.64,1.13,12a1.93,1.93,0,0,0,1.35,1.58L197.63,96c.68.15.68.52,0,.82l-20,8.59A1.89,1.89,0,0,0,176.46,107.11Z"/><path class="cls-3" d="M48.89,99.73a1.71,1.71,0,0,0-.23,1.88l11.15,18.75c.38.68.07.83-.53.61l-12.65-5.5-7.38-3.17a1.91,1.91,0,0,0-2,.46l-.08.07-8.58,9.94L23,129.18c-.45.52-.91.37-.83-.23l2.11-21.84a1.67,1.67,0,0,0-1.13-1.66l-20-8.59c-.52-.3-.52-.67.15-.82l21.17-4.75a1.84,1.84,0,0,0,1.36-1.58l.75-7.53,1.2-14.09c.15-.75.46-.83.83-.22L36.91,81.8l2.79,4.9a1.78,1.78,0,0,0,1.88.6l4.14-.91,17.1-3.84c.68-.07.76.08.38.76Z"/><path class="cls-3" d="M181.21,26.21V62.66c-3.47-1-6.85-1.8-10.24-2.63-2.86-.67-5.8-1.35-8.66-1.88-.22-.08-.46-.08-.69-.14V40.29a156.81,156.81,0,0,0-17.39-7.37c-2.63-.91-5.27-1.81-7.92-2.57-3.45-1-7-1.88-10.47-2.55A89.8,89.8,0,0,0,114,26a36.08,36.08,0,0,0-4-.45,126.24,126.24,0,0,0-18.45,0c-1.2.08-2.41.22-3.61.37A97,97,0,0,0,75.69,27.8a80.4,80.4,0,0,0-10.16,2.49c-2.8.74-5.51,1.65-8.29,2.63a156.15,156.15,0,0,0-17.4,7.37V58c-.15,0-.23.06-.37.06-2.94.61-6,1.2-8.82,2-3.39.75-6.78,1.65-10.16,2.57V26.21l2.77-1.43A185.53,185.53,0,0,1,52.18,12.66c4.9-1.59,9.72-2.94,14.47-4,0-.07.15-.07.23,0,1.57-.45,3.24-.68,4.82-1a154.86,154.86,0,0,1,58.37,0c3.16.67,6.32,1.34,9.49,2.24s6.47,1.74,9.79,2.8A145.9,145.9,0,0,1,163.81,18c2.57.9,5,2.11,7.38,3.17,1.29.53,2.49,1.12,3.7,1.73s2.32,1.29,3.53,1.88Z"/></svg>