<svg id="Layer_2" data-name="Layer 2" xmlns="http://www.w3.org/2000/svg" viewBox="0 0 262.13 155.69"><defs><style>.cls-1{fill:#f1faee;}.cls-2{fill:#457b9d;}.cls-3{fill:#e63946;}</style></defs><path class="cls-1" d="M244.07,346h10.44l4.66,33.32h.13L264,346H274.4v46.56h-6.92V357.28h-.13L262,392.53h-6.12l-5.32-35.25h-.14v35.25h-6.38Z" transform="translate(-244.07 -280.62)"/><path class="cls-1" d="M286.57,372.71,277.72,346h7.79l5,17.09h.13l5-17.09h7.11l-8.84,26.74v19.82h-7.32Z" transform="translate(-244.07 -280.62)"/><path class="cls-1" d="M319,390.2q-2.76-3-2.76-8.45v-25q0-5.46,2.76-8.45t8-3c3.5,0,6.18,1,8,3s2.76,4.81,2.76,8.45v4.92h-6.92v-5.39q0-4.32-3.66-4.32t-3.66,4.32v26c0,2.84,1.22,4.25,3.66,4.25s3.66-1.41,3.66-4.25v-7.12h6.92v6.58q0,5.46-2.76,8.45c-1.84,2-4.52,3-8,3S320.84,392.2,319,390.2Z" transform="translate(-244.07 -280.62)"/><path class="cls-1" d="M347.83,346h9.91l7.58,46.56H358l-1.33-9.25v.14h-8.32L347,392.53h-6.78Zm8,31.13-3.26-23h-.13l-3.19,23Z" transform="translate(-244.07 -280.62)"/><path class="cls-1" d="M368.85,346h10.84q5.65,0,8.25,2.63t2.59,8.08v2.86q0,7.24-4.79,9.18v.13a5.69,5.69,0,0,1,3.76,3.26,16.46,16.46,0,0,1,1.1,6.59v8.18a30.92,30.92,0,0,0,.13,3.22,8,8,0,0,0,.67,2.43H384a10.41,10.41,0,0,1-.54-2.13,34.48,34.48,0,0,1-.13-3.59V378.3c0-2.13-.34-3.62-1-4.46a4.37,4.37,0,0,0-3.56-1.26h-2.53v19.95h-7.31Zm10,19.95a4.37,4.37,0,0,0,3.3-1.13,5.33,5.33,0,0,0,1.1-3.79v-3.59a5.93,5.93,0,0,0-.9-3.66,3.41,3.41,0,0,0-2.83-1.13h-3.33v13.3Z" transform="translate(-244.07 -280.62)"/><path class="cls-1" d="M397.91,390.17q-2.79-3-2.79-8.68V357q0-5.65,2.79-8.68c1.87-2,4.57-3,8.12-3s6.25,1,8.11,3,2.8,4.91,2.8,8.68v4H410v-4.45q0-4.59-3.79-4.59t-3.79,4.59V382c0,3,1.26,4.52,3.79,4.52S410,385,410,382v-9.11h-3.66v-6.65h10.58v15.23q0,5.65-2.8,8.68t-8.11,3C402.48,393.2,399.78,392.19,397.91,390.17Z" transform="translate(-244.07 -280.62)"/><path class="cls-1" d="M424,390.14c-1.91-2-2.86-4.93-2.86-8.65V357c0-3.72.95-6.61,2.86-8.65s4.65-3.06,8.25-3.06,6.34,1,8.24,3.06,2.86,4.93,2.86,8.65v24.48c0,3.72-.95,6.61-2.86,8.65s-4.65,3.06-8.24,3.06S425.89,392.18,424,390.14ZM436,382v-25.4c0-3.06-1.27-4.59-3.79-4.59s-3.8,1.53-3.8,4.59V382q0,4.59,3.8,4.59C434.76,386.54,436,385,436,382Z" transform="translate(-244.07 -280.62)"/><path class="cls-1" d="M461.43,390.17q-2.79-3-2.79-8.68V346H466v36a5.09,5.09,0,0,0,1,3.46,4.12,4.12,0,0,0,5.52,0,5,5,0,0,0,1-3.46V346h7v35.52q0,5.65-2.8,8.68t-8.11,3C466,393.2,463.3,392.19,461.43,390.17Z" transform="translate(-244.07 -280.62)"/><path class="cls-1" d="M487.11,390.17q-2.73-3-2.73-8.68v-2.66h6.92V382c0,3,1.26,4.52,3.79,4.52a3.58,3.58,0,0,0,2.83-1.09,5.38,5.38,0,0,0,1-3.56,9.87,9.87,0,0,0-1.33-5.16,24.8,24.8,0,0,0-4.92-5.35,29.44,29.44,0,0,1-6.32-7.22,14.69,14.69,0,0,1-1.8-7.28c0-3.68.94-6.53,2.8-8.55s4.57-3,8.11-3,6.16,1,7.95,3,2.7,4.91,2.7,8.68v1.93h-6.92v-2.39a5.39,5.39,0,0,0-.93-3.5,3.38,3.38,0,0,0-2.73-1.09q-3.66,0-3.66,4.45a8.84,8.84,0,0,0,1.36,4.72,26.25,26.25,0,0,0,5,5.33,27.21,27.21,0,0,1,6.32,7.25,16.11,16.11,0,0,1,1.73,7.65q0,5.72-2.83,8.78t-8.21,3.06Q489.84,393.2,487.11,390.17Z" transform="translate(-244.07 -280.62)"/><path class="cls-2" d="M328.6,338.88V326.7c31.39-15.54,63.19-15.54,94.58,0v12.18h29.87s-13.64-2.4-22.91-7v-9.44l-1.88-1c-34.75-17.9-70-17.9-104.74,0l-1.88,1v9.44c-9.27,4.61-22.91,7-22.91,7H328.6Z" transform="translate(-244.07 -280.62)"/><path class="cls-2" d="M413.85,401.16h-.05v.06c-8.27,10.59-21,19.8-37.92,27.46C359,421,346.25,411.81,338,401.22l0,0v0h-8.62l-30.64,0c20.53,2.14,32.44,6,36.32,7.43,9.19,10.48,22.39,19.55,39.43,27.07l1.41.62,1.41-.62c17-7.52,30.24-16.59,39.43-27.07,3.88-1.43,15.8-5.29,36.32-7.43l-30.63,0Z" transform="translate(-244.07 -280.62)"/><path class="cls-3" d="M408.53,401.18a65.58,65.58,0,0,1-5.95,6c-.49.44-1,.87-1.5,1.3q-1.71,1.46-3.57,2.85c-2,1.48-4.05,2.92-6.25,4.31l-.75.47q-2.44,1.53-5.08,3-2.12,1.17-4.37,2.3c-.86.44-1.74.87-2.63,1.29s-1.68.79-2.54,1.18c-.85-.39-1.7-.78-2.53-1.18s-1.42-.68-2.12-1q-2.52-1.25-4.88-2.55-2.64-1.46-5.07-3l-.26-.16c-2.39-1.49-4.63-3-6.74-4.62-1.06-.79-2.09-1.6-3.08-2.42-.68-.57-1.34-1.14-2-1.71a67.28,67.28,0,0,1-6-6Z" transform="translate(-244.07 -280.62)"/><path class="cls-3" d="M419.13,330.56v8.32H332.65v-8.32q2.24-1.11,4.49-2.1c1.29-.57,2.58-1.12,3.87-1.63l1.21-.47c2.33-.9,4.67-1.7,7-2.4.66-.21,1.33-.4,2-.59,1-.29,2.05-.56,3.08-.8,2.25-.56,4.5-1,6.74-1.4l.26,0c1.69-.29,3.38-.52,5.07-.7s3.25-.31,4.88-.4c.7,0,1.41-.07,2.12-.08q2.53-.07,5.07,0c.88,0,1.75.06,2.63.12,1.46.08,2.91.2,4.37.37,1.69.17,3.39.41,5.08.7l.75.12c2.09.36,4.17.79,6.25,1.31,1.19.29,2.38.6,3.57.94l1.5.45c2.33.7,4.67,1.5,7,2.41.57.21,1.14.44,1.71.67,1.12.45,2.24.92,3.36,1.42C416.14,329.12,417.64,329.82,419.13,330.56Z" transform="translate(-244.07 -280.62)"/><path class="cls-1" d="M342.22,326.36v12.52h-5.08V328.46c1.29-.57,2.58-1.12,3.87-1.63Z" transform="translate(-244.07 -280.62)"/><path class="cls-1" d="M354.29,322.57v16.31h-5.07V324c.66-.21,1.33-.4,2-.59C352.24,323.08,353.26,322.81,354.29,322.57Z" transform="translate(-244.07 -280.62)"/><path class="cls-1" d="M349.22,401.18h5.07V411.3c-1.06-.79-2.09-1.6-3.08-2.42-.68-.57-1.34-1.14-2-1.71Z" transform="translate(-244.07 -280.62)"/><path class="cls-1" d="M366.36,320.43v18.45h-5.07V321.13C363,320.84,364.67,320.61,366.36,320.43Z" transform="translate(-244.07 -280.62)"/><path class="cls-1" d="M361.29,401.18h5.07v17.88q-2.64-1.46-5.07-3Z" transform="translate(-244.07 -280.62)"/><path class="cls-1" d="M378.43,320v18.93h-5.07V320Q375.9,319.88,378.43,320Z" transform="translate(-244.07 -280.62)"/><path class="cls-1" d="M373.36,401.18h5.07v21.46c-.83.4-1.68.79-2.54,1.18-.85-.39-1.7-.78-2.53-1.18Z" transform="translate(-244.07 -280.62)"/><path class="cls-1" d="M390.51,321.14v17.74h-5.08V320.44C387.12,320.61,388.82,320.85,390.51,321.14Z" transform="translate(-244.07 -280.62)"/><path class="cls-1" d="M385.43,401.18h5.08v14.89q-2.44,1.53-5.08,3Z" transform="translate(-244.07 -280.62)"/><path class="cls-1" d="M402.58,324v14.92h-5.07V322.57c1.19.29,2.38.6,3.57.94Z" transform="translate(-244.07 -280.62)"/><path class="cls-1" d="M397.51,401.18h5.07v6c-.49.44-1,.87-1.5,1.3q-1.71,1.46-3.57,2.85Z" transform="translate(-244.07 -280.62)"/><path class="cls-1" d="M414.65,328.46v10.42h-5.07V326.37c.57.21,1.14.44,1.71.67C412.41,327.49,413.53,328,414.65,328.46Z" transform="translate(-244.07 -280.62)"/><path class="cls-1" d="M388.36,289.44a.55.55,0,0,0-.51-.37h-8.64L376.67,281a.55.55,0,0,0-1,0l-2.54,8.12h-8.64a.53.53,0,0,0-.31,1l7.1,5.07-3,8.12a.55.55,0,0,0,.17.61.56.56,0,0,0,.64,0l7.12-5.09,7.13,5.09a.57.57,0,0,0,.31.1.54.54,0,0,0,.5-.72l-3.05-8.12,7.11-5.07A.56.56,0,0,0,388.36,289.44Z" transform="translate(-244.07 -280.62)"/><path class="cls-1" d="M421.7,296.21a.54.54,0,0,0-.4-.49l-8.39-2.07-.51-8.5a.55.55,0,0,0-1-.25L407,292.18l-8.38-2.08a.52.52,0,0,0-.58.24.53.53,0,0,0,0,.62l5.68,6.64-4.91,7.14a.54.54,0,0,0,0,.63.53.53,0,0,0,.61.17l8.15-3.23,5.69,6.66a.59.59,0,0,0,.27.17.61.61,0,0,0,.35,0,.54.54,0,0,0,.31-.55l-1-8.61,8.12-3.21A.53.53,0,0,0,421.7,296.21Z" transform="translate(-244.07 -280.62)"/><path class="cls-1" d="M331.61,296.74l8.11,3.21-1,8.61a.55.55,0,0,0,.32.55.57.57,0,0,0,.34,0,.59.59,0,0,0,.27-.17l5.7-6.66,8.14,3.23a.53.53,0,0,0,.61-.17.53.53,0,0,0,0-.63l-4.9-7.14,5.67-6.64a.53.53,0,0,0-.53-.86L346,292.18l-4.42-7.28a.55.55,0,0,0-1,.25l-.51,8.5-8.39,2.07a.56.56,0,0,0-.4.49A.54.54,0,0,0,331.61,296.74Z" transform="translate(-244.07 -280.62)"/></svg>