<svg width="202" height="120" viewBox="0 0 202 120" fill="none" xmlns="http://www.w3.org/2000/svg">
<g clip-path="url(#clip0)">
<path d="M0.000179898 50.3926H8.04534L11.6364 76.0744H11.7366L15.3584 50.3926H23.3728V86.2793H18.0402V59.0868H17.94L13.8172 86.2562H9.10108L5.00143 59.0868H4.89355V86.2562H-0.0229492L0.000179898 50.3926Z" fill="#F8F8F8"/>
<path d="M32.7511 70.9796L25.9312 50.3926H31.9342L35.7873 63.5649H35.8874L39.7405 50.3926H45.2195L38.4073 71.0028V86.2793H32.7665L32.7511 70.9796Z" fill="#F8F8F8"/>
<path d="M57.7416 84.4603C56.3237 82.9188 55.6147 80.7478 55.6147 77.9473V58.6783C55.6147 55.8727 56.3237 53.7017 57.7416 52.1653C59.1596 50.6289 61.2145 49.8582 63.9065 49.853C66.6036 49.853 68.6689 50.6238 70.0714 52.1653C71.4739 53.7068 72.1983 55.8727 72.1983 58.6783V62.4704H66.8657V58.316C66.8657 56.0962 65.9255 54.9863 64.0452 54.9863C62.1649 54.9863 61.2248 56.0962 61.2248 58.316V78.3558C61.2248 80.5448 62.1649 81.6316 64.0452 81.6316C65.9255 81.6316 66.8657 80.5448 66.8657 78.3558V72.868H72.1983V77.9396C72.1983 80.7452 71.4893 82.9162 70.0714 84.4526C68.6535 85.9941 66.5882 86.7649 63.9065 86.7649C61.2248 86.7649 59.1596 86.0018 57.7416 84.4603Z" fill="#F8F8F8"/>
<path d="M79.9586 50.3926H87.5953L93.4366 86.2793H87.7957L86.7708 79.1497V79.2576H80.3593L79.319 86.2562H74.0942L79.9586 50.3926ZM86.1235 74.3864L83.6113 56.6589H83.5111L81.0528 74.3864H86.1235Z" fill="#F8F8F8"/>
<path d="M96.1567 50.3926H104.51C107.413 50.3926 109.532 51.0683 110.868 52.4197C112.203 53.7711 112.869 55.847 112.864 58.6474V60.8518C112.864 64.572 111.633 66.9306 109.172 67.9274V68.0276C109.814 68.1995 110.408 68.5151 110.91 68.9503C111.412 69.3856 111.809 69.9293 112.07 70.5403C112.697 72.1577 112.985 73.8864 112.918 75.6196V81.9245C112.908 82.7529 112.941 83.5813 113.018 84.4063C113.09 85.054 113.264 85.6862 113.534 86.2793H107.831C107.635 85.7483 107.496 85.1979 107.415 84.6376C107.334 83.7176 107.3 82.794 107.315 81.8705V75.2882C107.315 73.6465 107.053 72.498 106.545 71.8506C106.189 71.4938 105.758 71.2214 105.283 71.0533C104.808 70.8853 104.302 70.8258 103.801 70.8794H101.852V86.2562H96.2184L96.1567 50.3926ZM103.863 65.7693C104.324 65.8066 104.787 65.7484 105.225 65.5986C105.663 65.4487 106.064 65.2104 106.406 64.8983C107.052 64.0689 107.355 63.0235 107.254 61.9771V59.2101C107.335 58.2194 107.092 57.229 106.56 56.3891C106.289 56.0847 105.951 55.8476 105.572 55.6964C105.194 55.5453 104.785 55.4842 104.379 55.5181H101.813V65.7693H103.863Z" fill="#F8F8F8"/>
<path d="M118.55 84.4369C117.117 82.8953 116.4 80.6652 116.4 77.7466V58.8707C116.4 55.9675 117.117 53.7374 118.55 52.1805C119.991 50.6389 122.072 49.8682 124.808 49.8682C127.543 49.8682 129.624 50.6389 131.057 52.1805C132.491 53.722 133.215 55.9649 133.215 58.8707V61.9537H127.867V58.5238C127.867 56.1653 126.894 54.986 124.946 54.986C122.999 54.986 122.026 56.1653 122.026 58.5238V78.1397C122.026 80.452 122.997 81.6236 124.946 81.6236C126.896 81.6236 127.867 80.452 127.867 78.1397V71.1181H125.047V65.9925H133.2V77.7312C133.2 80.6344 132.48 82.8645 131.042 84.4214C129.604 85.9784 127.52 86.7491 124.792 86.7337C122.072 86.7723 119.991 85.9938 118.55 84.4369Z" fill="#F8F8F8"/>
<path d="M138.656 84.4139C137.184 82.8724 136.452 80.614 136.452 77.7468V58.8708C136.452 56.0036 137.184 53.7761 138.656 52.2037C140.128 50.6314 142.239 49.8452 145.013 49.8452C147.788 49.8452 149.899 50.616 151.363 52.2037C152.827 53.7915 153.567 56.0036 153.567 58.8708V77.7391C153.567 80.6063 152.835 82.8338 151.363 84.4062C149.891 85.9785 147.78 86.7647 145.013 86.7647C142.247 86.7647 140.112 85.9863 138.656 84.4139ZM147.903 78.1399V58.5625C147.903 56.204 146.924 55.0247 144.983 55.0247C143.041 55.0247 142.054 56.204 142.054 58.5625V78.1399C142.054 80.4984 143.03 81.6777 144.983 81.6777C146.948 81.6392 147.903 80.4522 147.903 78.1399Z" fill="#F8F8F8"/>
<path d="M167.5 84.4371C166.067 82.8956 165.35 80.6655 165.35 77.7469V50.3926H171.022V78.14C170.945 79.0932 171.219 80.0415 171.792 80.8068C172.375 81.3333 173.133 81.6247 173.919 81.6247C174.705 81.6247 175.463 81.3333 176.046 80.8068C176.625 80.0445 176.9 79.0938 176.817 78.14V50.3926H182.211V77.77C182.211 80.6732 181.492 82.9033 180.053 84.4603C178.615 86.0172 176.531 86.788 173.803 86.7726C171.022 86.7726 168.941 85.9941 167.5 84.4371Z" fill="#F8F8F8"/>
<path d="M187.289 84.4368C185.887 82.8952 185.185 80.6651 185.185 77.7465V75.6963H190.518V78.1396C190.518 80.4519 191.489 81.6235 193.439 81.6235C193.841 81.6516 194.245 81.5909 194.622 81.4458C194.999 81.3006 195.339 81.0745 195.619 80.7833C196.192 79.9885 196.465 79.0164 196.39 78.0394C196.419 76.6448 196.065 75.2689 195.365 74.0623C194.311 72.509 193.033 71.1195 191.574 69.9387C189.657 68.3626 188.012 66.4827 186.703 64.3738C185.763 62.655 185.286 60.7216 185.316 58.7626C185.316 55.9262 186.041 53.7296 187.474 52.1726C188.907 50.6157 190.996 49.8604 193.724 49.8604C196.452 49.8604 198.471 50.6311 199.85 52.1726C201.229 53.7142 201.931 55.9571 201.931 58.8629V60.3504H196.598V58.5083C196.677 57.5533 196.424 56.6003 195.881 55.8106C195.617 55.5212 195.29 55.2953 194.926 55.1498C194.561 55.0044 194.169 54.9431 193.778 54.9705C191.897 54.9705 190.957 56.1138 190.957 58.4004C190.956 59.6878 191.319 60.9491 192.005 62.0384C193.092 63.5808 194.389 64.9636 195.858 66.1466C197.801 67.7052 199.45 69.5974 200.728 71.7346C201.652 73.5602 202.11 75.5856 202.062 77.6309C202.062 80.5701 201.335 82.8259 199.881 84.3982C198.427 85.9706 196.318 86.7567 193.554 86.7567C190.78 86.767 188.692 85.9937 187.289 84.4368Z" fill="#F8F8F8"/>
<path d="M65.1397 44.9048V35.5169C89.3291 23.5393 113.835 23.5393 138.024 35.5169V44.9048H161.042C161.042 44.9048 150.531 43.055 143.387 39.5095V32.2335L141.939 31.4627C115.16 17.6661 87.996 17.6661 61.225 31.4627L59.7763 32.2335V39.5095C52.6327 43.0627 42.1216 44.9048 42.1216 44.9048H65.1397Z" fill="#457B9D"/>
<path d="M130.834 92.9077H130.796V92.954C124.423 101.116 114.613 108.215 101.574 114.119C88.5664 108.2 78.7411 101.116 72.3835 92.954H65.7409H42.1294C57.95 94.6034 67.128 97.5785 70.118 98.6807C77.1999 106.758 87.3719 113.749 100.503 119.545L101.59 120.023L102.676 119.545C115.777 113.749 125.979 106.758 133.061 98.6807C136.051 97.5785 145.237 94.6034 161.05 92.954H137.446L130.834 92.9077Z" fill="#457B9D"/>
<path d="M126.735 92.9229C125.307 94.5614 123.776 96.1061 122.15 97.5474C121.772 97.8866 121.379 98.218 120.994 98.5494C120.115 99.2996 119.198 100.032 118.243 100.746C116.701 101.887 115.122 102.997 113.426 104.068L112.848 104.43C111.595 105.217 110.29 105.987 108.934 106.743C107.844 107.344 106.722 107.935 105.566 108.515C104.903 108.855 104.225 109.186 103.539 109.51C102.853 109.833 102.245 110.119 101.582 110.419C100.927 110.119 100.272 109.818 99.6323 109.51C98.9927 109.201 98.5381 108.986 97.9986 108.739C96.704 108.097 95.4505 107.441 94.238 106.773C92.8818 106.023 91.5795 105.252 90.3311 104.461L90.1307 104.338C88.289 103.189 86.5628 102.026 84.9368 100.777C84.12 100.168 83.3262 99.5437 82.5633 98.9117C82.0393 98.4724 81.5307 98.033 81.0221 97.5937C79.3851 96.151 77.8408 94.6064 76.3984 92.9691L126.735 92.9229Z" fill="#E63946"/>
<path d="M134.903 38.4918V44.9046H68.2607V38.4918C69.4115 37.9214 70.5649 37.3819 71.7208 36.8732C72.7149 36.4339 73.709 36.0099 74.7031 35.6169L75.6355 35.2546C77.431 34.5609 79.2342 33.9443 81.0298 33.4048C81.5384 33.2429 82.0547 33.0965 82.571 32.95C83.3416 32.7265 84.1507 32.5184 84.9444 32.3334C86.6783 31.9018 88.4122 31.5627 90.1384 31.2544H90.3387C91.641 31.0308 92.9434 30.8536 94.2457 30.7148C95.548 30.5761 96.7502 30.4759 98.0063 30.4065C98.5457 30.4065 99.0928 30.3526 99.64 30.3448C100.94 30.3089 102.242 30.3089 103.547 30.3448C104.225 30.3448 104.896 30.3911 105.574 30.4373C106.699 30.499 107.816 30.5915 108.941 30.7225C110.244 30.8536 111.554 31.0385 112.856 31.2621L113.434 31.3545C115.044 31.632 116.647 31.9634 118.25 32.3642C119.167 32.5878 120.084 32.8267 121.001 33.0888L122.157 33.4356C123.953 33.9751 125.756 34.5918 127.551 35.2932C127.991 35.455 128.43 35.6323 128.869 35.8096C129.732 36.1564 130.595 36.5187 131.458 36.904C132.599 37.3819 133.755 37.9214 134.903 38.4918Z" fill="#E63946"/>
<path d="M75.6354 35.2549V44.9048H71.7207V36.8735C72.7148 36.4342 73.7089 36.0102 74.703 35.6171L75.6354 35.2549Z" fill="#F1FAEE"/>
<path d="M84.9368 32.3335V44.9046H81.0298V33.4357C81.5384 33.2738 82.0547 33.1274 82.571 32.9809C83.357 32.7266 84.143 32.5185 84.9368 32.3335Z" fill="#F1FAEE"/>
<path d="M81.0297 92.9229H84.9367V100.723C84.1198 100.114 83.3261 99.4898 82.5632 98.8577C82.0392 98.4184 81.5306 97.9791 81.022 97.5397L81.0297 92.9229Z" fill="#F1FAEE"/>
<path d="M94.238 30.6841V44.9047H90.3311V31.2236C91.6488 31.0001 92.9357 30.8228 94.238 30.6841Z" fill="#F1FAEE"/>
<path d="M90.3311 92.9229H94.238V106.704C92.8818 105.954 91.5794 105.183 90.3311 104.392V92.9229Z" fill="#F1FAEE"/>
<path d="M103.539 30.3524V44.9429H99.6323V30.3524C100.937 30.2907 102.24 30.2907 103.539 30.3524Z" fill="#F1FAEE"/>
<path d="M99.6323 92.9229H103.539V109.463C102.9 109.772 102.245 110.072 101.582 110.373C100.927 110.072 100.272 109.772 99.6323 109.463V92.9229Z" fill="#F1FAEE"/>
<path d="M112.848 31.2314V44.9048H108.934V30.6919C110.236 30.8229 111.546 31.0079 112.848 31.2314Z" fill="#F1FAEE"/>
<path d="M108.934 92.9229H112.848V104.4C111.595 105.186 110.29 105.956 108.934 106.712V92.9229Z" fill="#F1FAEE"/>
<path d="M122.149 33.4357V44.9355H118.242V32.3335C119.159 32.557 120.076 32.796 120.993 33.058L122.149 33.4357Z" fill="#F1FAEE"/>
<path d="M118.242 92.9229H122.149V97.5474C121.772 97.8866 121.379 98.218 120.993 98.5494C120.115 99.2996 119.198 100.032 118.242 100.746V92.9229Z" fill="#F1FAEE"/>
<path d="M131.451 36.8731V44.9044H127.544V35.2622C127.983 35.4241 128.422 35.6014 128.861 35.7786C129.725 36.1255 130.588 36.5185 131.451 36.8731Z" fill="#F1FAEE"/>
<path d="M111.191 6.79795C111.163 6.71587 111.11 6.64451 111.04 6.5935C110.969 6.5425 110.885 6.51431 110.798 6.51278H104.14L102.183 0.292718C102.149 0.218924 102.095 0.156383 102.027 0.112541C101.958 0.0687001 101.879 0.0454102 101.798 0.0454102C101.716 0.0454102 101.637 0.0687001 101.569 0.112541C101.5 0.156383 101.446 0.218924 101.412 0.292718L99.455 6.55131H92.7969C92.7007 6.53739 92.6026 6.55829 92.5204 6.61023C92.4382 6.66217 92.3772 6.74174 92.3484 6.83465C92.3196 6.92755 92.3249 7.0277 92.3633 7.11705C92.4018 7.2064 92.4708 7.27909 92.558 7.32207L98.0294 11.2298L95.7175 17.4884C95.6883 17.5707 95.6851 17.6601 95.7086 17.7442C95.732 17.8284 95.7809 17.9033 95.8485 17.9586C95.9209 18.009 96.0069 18.036 96.0951 18.036C96.1833 18.036 96.2694 18.009 96.3417 17.9586L101.828 14.0354L107.323 17.9586C107.393 18.007 107.476 18.0338 107.562 18.0357C107.628 18.0345 107.693 18.0178 107.751 17.9867C107.809 17.9556 107.859 17.9111 107.897 17.8569C107.934 17.8027 107.958 17.7403 107.967 17.6749C107.976 17.6095 107.969 17.5429 107.947 17.4807L105.597 11.2221L111.076 7.31435C111.15 7.25332 111.201 7.16946 111.222 7.07596C111.243 6.98246 111.232 6.88466 111.191 6.79795Z" fill="#F8F8F8"/>
<path d="M136.884 12.0161C136.878 11.9287 136.846 11.8452 136.79 11.7774C136.735 11.7095 136.66 11.6609 136.575 11.6384L130.11 10.0429L129.717 3.49142C129.707 3.40551 129.672 3.32461 129.615 3.25954C129.558 3.19448 129.482 3.14837 129.398 3.1274C129.315 3.10643 129.226 3.11162 129.146 3.14224C129.065 3.17286 128.995 3.22746 128.946 3.29873L125.556 8.90988L119.098 7.30671C119.013 7.28463 118.924 7.29074 118.843 7.32414C118.763 7.35753 118.695 7.41635 118.651 7.49168C118.601 7.56125 118.574 7.64484 118.574 7.73062C118.574 7.81639 118.601 7.89998 118.651 7.96955L123.028 13.0874L119.244 18.5907C119.193 18.6614 119.166 18.7463 119.166 18.8334C119.166 18.9206 119.193 19.0055 119.244 19.0762C119.298 19.1458 119.373 19.1961 119.458 19.2197C119.542 19.2433 119.632 19.239 119.714 19.2073L125.995 16.7177L130.38 21.851C130.436 21.9129 130.508 21.9583 130.588 21.982C130.676 22.0084 130.769 22.0084 130.857 21.982C130.937 21.9454 131.002 21.8847 131.045 21.8086C131.088 21.7325 131.106 21.6449 131.096 21.5581L130.326 14.9218L136.583 12.4477C136.676 12.4227 136.757 12.3657 136.812 12.2867C136.867 12.2077 136.892 12.1119 136.884 12.0161Z" fill="#F8F8F8"/>
<path d="M67.4591 12.4246L73.7088 14.8987L72.9382 21.535C72.9303 21.6225 72.9498 21.7103 72.994 21.7862C73.0381 21.8622 73.1048 21.9225 73.1848 21.9589C73.2701 21.9855 73.3615 21.9855 73.4468 21.9589C73.5268 21.9351 73.5988 21.8898 73.6548 21.8279L78.0473 16.6946L84.3201 19.1842C84.4021 19.2158 84.4921 19.2202 84.5768 19.1966C84.6615 19.173 84.7363 19.1227 84.7902 19.0531C84.8421 18.9828 84.8701 18.8977 84.8701 18.8103C84.8701 18.7229 84.8421 18.6378 84.7902 18.5675L81.0142 13.0643L85.3835 7.94643C85.4401 7.88071 85.4743 7.79869 85.4811 7.71224C85.488 7.6258 85.4672 7.53942 85.4217 7.4656C85.3762 7.39177 85.3084 7.33435 85.2281 7.30162C85.1478 7.2689 85.0592 7.26259 84.9751 7.28358L78.5482 8.90988L75.1421 3.29873C75.0932 3.22746 75.0237 3.17286 74.9428 3.14224C74.862 3.11162 74.7737 3.10643 74.6899 3.1274C74.606 3.14837 74.5306 3.19448 74.4737 3.25954C74.4168 3.32461 74.3811 3.40551 74.3715 3.49142L73.9785 10.0429L67.5131 11.6384C67.4296 11.6629 67.3556 11.7121 67.3006 11.7795C67.2455 11.8469 67.2122 11.9294 67.2048 12.0161C67.1997 12.1021 67.2214 12.1876 67.267 12.2608C67.3125 12.334 67.3797 12.3912 67.4591 12.4246Z" fill="#F8F8F8"/>
</g>
<defs>
<clipPath id="clip0">
<rect width="202" height="120" fill="white"/>
</clipPath>
</defs>
</svg>
