<svg width="144" height="27" viewBox="0 0 144 27" fill="none" xmlns="http://www.w3.org/2000/svg">
<path d="M0.0168063 0H5.86265L8.47201 18.6065H8.54479L11.1766 0H17V26H13.1252V6.29897H13.0524L10.0567 25.9832H6.62978L3.65086 6.29897H3.57247V25.9832H0L0.0168063 0Z" fill="#F8F8F8"/>
<path d="M68 0H74.2492C76.4207 0 78.0061 0.48955 79.0053 1.46865C80.0046 2.44774 80.5023 3.95174 80.4985 5.98067V7.57775C80.4985 10.2731 79.578 11.9818 77.737 12.704V12.7766C78.2171 12.9012 78.6617 13.1298 79.0372 13.4451C79.4127 13.7605 79.7093 14.1544 79.9047 14.5971C80.3735 15.7689 80.5894 17.0213 80.5388 18.2771V22.8449C80.5315 23.4452 80.5565 24.0453 80.6138 24.643C80.6677 25.1123 80.798 25.5703 81 26H76.7339C76.5871 25.6153 76.4828 25.2166 76.4226 24.8106C76.3617 24.144 76.3367 23.4749 76.3477 22.8058V18.0369C76.3477 16.8475 76.1517 16.0155 75.7712 15.5464C75.5052 15.2879 75.1827 15.0905 74.8275 14.9688C74.4723 14.847 74.0935 14.8039 73.7188 14.8428H72.2603V25.9832H68.0461L68 0ZM73.765 11.1405C74.1098 11.1675 74.4567 11.1253 74.784 11.0168C75.1113 10.9082 75.412 10.7355 75.6674 10.5095C76.1506 9.90856 76.3775 9.15112 76.3016 8.39304V6.38832C76.3627 5.67052 76.1805 4.95299 75.7827 4.3445C75.5799 4.12398 75.3269 3.95216 75.0438 3.84264C74.7606 3.73313 74.455 3.68891 74.1512 3.71348H72.2315V11.1405H73.765Z" fill="#F8F8F8"/>
<path d="M98.5452 25.2808C97.5133 24.1535 97 22.5019 97 20.405V6.60062C97 4.50375 97.5133 2.87474 98.5452 1.72484C99.5772 0.574947 101.058 0 103.003 0C104.948 0 106.428 0.563673 107.455 1.72484C108.481 2.88601 109 4.50375 109 6.60062V20.3994C109 22.4962 108.487 24.1253 107.455 25.2752C106.423 26.4251 104.942 27 103.003 27C101.063 27 99.5664 26.4307 98.5452 25.2808ZM105.029 20.6925V6.37516C105.029 4.65031 104.343 3.78789 102.981 3.78789C101.62 3.78789 100.928 4.65031 100.928 6.37516V20.6925C100.928 22.4173 101.612 23.2797 102.981 23.2797C104.359 23.2516 105.029 22.3835 105.029 20.6925Z" fill="#F8F8F8"/>
<path d="M56.9414 0H62.0741L66 26H62.2088L61.5199 20.8346V20.9128H57.2108L56.5116 25.9832H53L56.9414 0ZM61.0849 17.3836L59.3964 4.53995H59.3291L57.6769 17.3836H61.0849Z" fill="#F8F8F8"/>
<path d="M22.9501 14.9154L18 0H22.3572L25.1538 9.54338H25.2265L28.0232 0H32L27.0555 14.9321V26H22.9612L22.9501 14.9154Z" fill="#F8F8F8"/>
<path d="M41.4108 25.3143C40.4703 24.1867 40 22.5987 40 20.5502V6.45542C40 4.40322 40.4703 2.8152 41.4108 1.69138C42.3513 0.56755 43.7144 0.00375861 45.5 0C47.289 0 48.6589 0.563792 49.5892 1.69138C50.5195 2.81896 51 4.40322 51 6.45542V9.22929H47.4628V6.19044C47.4628 4.56672 46.8392 3.75486 45.592 3.75486C44.3448 3.75486 43.7212 4.56672 43.7212 6.19044V20.849C43.7212 22.4502 44.3448 23.2451 45.592 23.2451C46.8392 23.2451 47.4628 22.4502 47.4628 20.849V16.8348H51V20.5446C51 22.5968 50.5297 24.1848 49.5892 25.3086C48.6487 26.4362 47.2788 27 45.5 27C43.7212 27 42.3513 26.4419 41.4108 25.3143Z" fill="#F8F8F8"/>
<path d="M84.5344 25.3169C83.5115 24.1879 83 22.5547 83 20.4172V6.5931C83 4.4669 83.5115 2.83368 84.5344 1.69344C85.5628 0.564479 87.0477 0 89 0C90.9523 0 92.4372 0.564479 93.4601 1.69344C94.4831 2.82239 95 4.46502 95 6.5931V8.85102H91.1833V6.33908C91.1833 4.61178 90.4885 3.74813 89.099 3.74813C87.7094 3.74813 87.0147 4.61178 87.0147 6.33908V20.7051C87.0147 22.3985 87.7076 23.2565 89.099 23.2565C90.4904 23.2565 91.1833 22.3985 91.1833 20.7051V15.5627H89.1705V11.8089H94.989V20.4059C94.989 22.5321 94.4757 24.1653 93.4491 25.3056C92.4225 26.4458 90.9358 27.0103 88.989 26.999C87.0477 27.0272 85.5628 26.4571 84.5344 25.3169Z" fill="#F8F8F8"/>
<path d="M119.53 25.2666C118.51 24.1225 118 22.4674 118 20.3013V0H122.037V20.5931C121.982 21.3005 122.177 22.0043 122.585 22.5723C123 22.963 123.54 23.1793 124.099 23.1793C124.658 23.1793 125.197 22.963 125.612 22.5723C126.025 22.0065 126.22 21.301 126.161 20.5931V0H130V20.3185C130 22.4732 129.488 24.1282 128.464 25.2837C127.441 26.4392 125.958 27.0113 124.016 26.9998C122.037 26.9998 120.556 26.4221 119.53 25.2666Z" fill="#F8F8F8"/>
<path d="M133.496 25.3022C132.499 24.1742 132 22.5422 132 20.4065V18.9061H135.791V20.6941C135.791 22.3862 136.481 23.2435 137.867 23.2435C138.154 23.2641 138.441 23.2197 138.709 23.1135C138.977 23.0073 139.219 22.8418 139.418 22.6287C139.825 22.0471 140.019 21.3357 139.966 20.6208C139.986 19.6002 139.734 18.5934 139.237 17.7104C138.487 16.5737 137.579 15.557 136.542 14.6929C135.179 13.5395 134.009 12.1638 133.079 10.6206C132.411 9.3628 132.071 7.94798 132.093 6.51449C132.093 4.43888 132.608 2.83141 133.627 1.69208C134.646 0.552746 136.131 0 138.07 0C140.009 0 141.445 0.564026 142.425 1.69208C143.406 2.82013 143.904 4.46144 143.904 6.58782V7.6764H140.113V6.32837C140.17 5.62954 139.99 4.93212 139.604 4.35428C139.416 4.14248 139.183 3.97718 138.924 3.87073C138.665 3.76427 138.387 3.71942 138.108 3.7395C136.772 3.7395 136.103 4.57614 136.103 6.24942C136.102 7.19147 136.361 8.11449 136.848 8.91161C137.621 10.0403 138.543 11.0522 139.588 11.9179C140.968 13.0585 142.141 14.4431 143.05 16.0071C143.706 17.343 144.032 18.8252 143.998 20.3219C143.998 22.4727 143.481 24.1234 142.447 25.274C141.414 26.4246 139.914 26.9999 137.949 26.9999C135.977 27.0074 134.493 26.4416 133.496 25.3022Z" fill="#F8F8F8"/>
</svg>
