<svg width="106" height="64" viewBox="0 0 106 64" fill="none" xmlns="http://www.w3.org/2000/svg">
<g clip-path="url(#clip0)">
<path d="M-0.000558252 26.876H4.22116L6.10557 40.5729H6.15813L8.05872 26.876H12.2643V46.0155H9.46597V31.5129H9.4134L7.24996 46.0032H4.77516L2.62386 31.5129H2.56725V46.0032H-0.0126953L-0.000558252 26.876Z" fill="#F1FAEE"/>
<path d="M17.1857 37.8557L13.6069 26.876H16.7571L18.779 33.9012H18.8315L20.8534 26.876H23.7286L20.1538 37.8681V46.0155H17.1938L17.1857 37.8557Z" fill="#F1FAEE"/>
<path d="M30.2999 45.0454C29.5559 44.2232 29.1838 43.0654 29.1838 41.5718V31.295C29.1838 29.7987 29.5559 28.6408 30.2999 27.8214C31.044 27.002 32.1223 26.5909 33.535 26.5882C34.9503 26.5882 36.034 26.9993 36.77 27.8214C37.506 28.6436 37.8861 29.7987 37.8861 31.295V33.3175H35.0878V31.1018C35.0878 29.9179 34.5944 29.3259 33.6077 29.3259C32.6211 29.3259 32.1277 29.9179 32.1277 31.1018V41.7897C32.1277 42.9571 32.6211 43.5368 33.6077 43.5368C34.5944 43.5368 35.0878 42.9571 35.0878 41.7897V38.8629H37.8861V41.5677C37.8861 43.064 37.5141 44.2219 36.77 45.0413C36.0259 45.8634 34.9422 46.2745 33.535 46.2745C32.1277 46.2745 31.044 45.8675 30.2999 45.0454Z" fill="#F1FAEE"/>
<path d="M41.9579 26.876H45.9653L49.0305 46.0155H46.0705L45.5327 42.2131V42.2707H42.1682L41.6223 46.0032H38.8806L41.9579 26.876ZM45.193 39.6727L43.8747 30.218H43.8221L42.5322 39.6727H45.193Z" fill="#F1FAEE"/>
<path d="M50.4587 26.876H54.8422C56.3654 26.876 57.4774 27.2364 58.1783 27.9571C58.8793 28.6778 59.2284 29.785 59.2257 31.2786V32.4542C59.2257 34.4384 58.58 35.6962 57.2887 36.2279V36.2813C57.6255 36.373 57.9373 36.5413 58.2007 36.7734C58.4641 37.0056 58.6722 37.2956 58.8092 37.6214C59.1381 38.484 59.2895 39.406 59.254 40.3304V43.693C59.2489 44.1348 59.2664 44.5767 59.3066 45.0166C59.3444 45.3621 59.4358 45.6992 59.5775 46.0155H56.5851C56.4821 45.7323 56.4089 45.4388 56.3667 45.14C56.324 44.6493 56.3064 44.1567 56.3141 43.6642V40.1536C56.3141 39.2781 56.1767 38.6656 55.9098 38.3203C55.7232 38.13 55.497 37.9847 55.2479 37.895C54.9987 37.8054 54.733 37.7737 54.4702 37.8023H53.4471V46.0032H50.4911L50.4587 26.876ZM54.5025 35.0769C54.7444 35.0968 54.9877 35.0658 55.2173 34.9858C55.4469 34.9059 55.6578 34.7788 55.837 34.6124C56.1759 34.17 56.3351 33.6125 56.2818 33.0544V31.5787C56.3247 31.0503 56.1969 30.5221 55.9179 30.0741C55.7756 29.9118 55.5982 29.7853 55.3995 29.7047C55.2009 29.6241 54.9866 29.5915 54.7735 29.6096H53.4269V35.0769H54.5025Z" fill="#F1FAEE"/>
<path d="M62.2093 45.0331C61.4571 44.2109 61.0811 43.0215 61.0811 41.4649V31.3978C61.0811 29.8494 61.4571 28.66 62.2093 27.8297C62.9655 27.0075 64.0573 26.5964 65.4928 26.5964C66.9284 26.5964 68.0202 27.0075 68.7724 27.8297C69.5245 28.6518 69.9046 29.848 69.9046 31.3978V33.0421H67.0982V31.2128C67.0982 29.9549 66.5874 29.326 65.5656 29.326C64.5439 29.326 64.033 29.9549 64.033 31.2128V41.6746C64.033 42.9078 64.5425 43.5326 65.5656 43.5326C66.5887 43.5326 67.0982 42.9078 67.0982 41.6746V37.9297H65.6182V35.1961H69.8965V41.4567C69.8965 43.0051 69.5191 44.1945 68.7643 45.0248C68.0094 45.8552 66.9163 46.2663 65.4848 46.2581C64.0573 46.2786 62.9655 45.8634 62.2093 45.0331Z" fill="#F1FAEE"/>
<path d="M72.7603 45.0207C71.9879 44.1986 71.6038 42.9941 71.6038 41.465V31.3978C71.6038 29.8686 71.9879 28.6806 72.7603 27.842C73.5326 27.0034 74.6406 26.5841 76.0964 26.5841C77.5522 26.5841 78.6602 26.9952 79.4285 27.842C80.1968 28.6888 80.585 29.8686 80.585 31.3978V41.4608C80.585 42.99 80.2009 44.178 79.4285 45.0166C78.6561 45.8552 77.5481 46.2745 76.0964 46.2745C74.6447 46.2745 73.5246 45.8593 72.7603 45.0207ZM77.6128 41.6746V31.2333C77.6128 29.9755 77.0993 29.3465 76.0802 29.3465C75.0612 29.3465 74.5436 29.9755 74.5436 31.2333V41.6746C74.5436 42.9325 75.0558 43.5614 76.0802 43.5614C77.1114 43.5409 77.6128 42.9078 77.6128 41.6746Z" fill="#F1FAEE"/>
<path d="M87.8955 45.0331C87.1434 44.2109 86.7673 43.0216 86.7673 41.465V26.876H89.7436V41.6746C89.7033 42.183 89.8471 42.6888 90.1479 43.0969C90.4541 43.3777 90.8517 43.5331 91.264 43.5331C91.6764 43.5331 92.074 43.3777 92.3801 43.0969C92.684 42.6903 92.8282 42.1833 92.7845 41.6746V26.876H95.6152V41.4773C95.6152 43.0257 95.2377 44.215 94.4829 45.0454C93.7281 45.8758 92.6349 46.2869 91.2034 46.2786C89.7436 46.2786 88.6517 45.8634 87.8955 45.0331Z" fill="#F1FAEE"/>
<path d="M98.28 45.0331C97.544 44.211 97.176 43.0216 97.176 41.465V40.3715H99.9743V41.6746C99.9743 42.9078 100.484 43.5327 101.507 43.5327C101.718 43.5477 101.93 43.5153 102.128 43.4379C102.326 43.3605 102.504 43.2399 102.651 43.0846C102.952 42.6607 103.095 42.1422 103.056 41.6212C103.071 40.8774 102.885 40.1436 102.518 39.5C101.965 38.6716 101.294 37.9306 100.528 37.3008C99.5225 36.4602 98.6591 35.4576 97.9727 34.3329C97.4794 33.4161 97.2286 32.385 97.2448 31.3402C97.2448 29.8275 97.6249 28.6559 98.377 27.8256C99.1292 26.9952 100.225 26.5923 101.657 26.5923C103.088 26.5923 104.148 27.0034 104.871 27.8256C105.595 28.6477 105.963 29.8439 105.963 31.3937V32.1871H103.165V31.2046C103.207 30.6953 103.074 30.187 102.789 29.7658C102.65 29.6115 102.478 29.491 102.287 29.4134C102.096 29.3358 101.89 29.3031 101.685 29.3178C100.698 29.3178 100.205 29.9275 100.205 31.147C100.204 31.8336 100.395 32.5063 100.755 33.0873C101.325 33.9099 102.006 34.6474 102.777 35.2783C103.796 36.1096 104.661 37.1188 105.332 38.2586C105.817 39.2323 106.057 40.3125 106.032 41.4033C106.032 42.9709 105.65 44.1739 104.888 45.0125C104.125 45.8511 103.018 46.2704 101.568 46.2704C100.112 46.2759 99.0159 45.8635 98.28 45.0331Z" fill="#F1FAEE"/>
<path d="M34.1821 23.9491V18.9423C46.8756 12.5542 59.7348 12.5542 72.4283 18.9423V23.9491H84.5071C84.5071 23.9491 78.9914 22.9626 75.2428 21.0716V17.1911L74.4825 16.78C60.4304 9.4218 46.176 9.4218 32.1278 16.78L31.3676 17.1911V21.0716C27.619 22.9667 22.1033 23.9491 22.1033 23.9491H34.1821Z" fill="white"/>
<path d="M68.6556 49.5508H68.6353V49.5754C65.2911 53.9287 60.1434 57.7147 53.3013 60.8635C46.4753 57.7065 41.3195 53.9287 37.9834 49.5754H34.4976H22.1074C30.4093 50.4551 35.2255 52.0419 36.7945 52.6297C40.5107 56.9378 45.8485 60.6662 52.7392 63.7575L53.3093 64.0123L53.8795 63.7575C60.754 60.6662 66.108 56.9378 69.8242 52.6297C71.3932 52.0419 76.2134 50.4551 84.5113 49.5754H72.1251L68.6556 49.5508Z" fill="#F1FAEE"/>
<path d="M39.6895 18.8025V23.9491H37.6353V19.6657C38.1569 19.4314 38.6786 19.2053 39.2002 18.9957L39.6895 18.8025Z" fill="#F1FAEE"/>
<path d="M44.5702 17.2445V23.9491H42.52V17.8323C42.7869 17.746 43.0578 17.6679 43.3288 17.5898C43.7412 17.4542 44.1537 17.3432 44.5702 17.2445Z" fill="#F1FAEE"/>
<path d="M42.5197 49.559H44.5699V53.719C44.1412 53.3943 43.7247 53.0613 43.3244 52.7242C43.0494 52.4899 42.7825 52.2556 42.5156 52.0213L42.5197 49.559Z" fill="#F1FAEE"/>
<path d="M49.4508 16.3648V23.9491H47.4006V16.6526C48.0921 16.5334 48.7674 16.4388 49.4508 16.3648Z" fill="#F1FAEE"/>
<path d="M47.4006 49.559H49.4508V56.9089C48.7391 56.5088 48.0557 56.0978 47.4006 55.6757V49.559Z" fill="#F1FAEE"/>
<path d="M54.3329 16.1881V23.9697H52.2827V16.1881C52.9675 16.1552 53.6509 16.1552 54.3329 16.1881Z" fill="#F1FAEE"/>
<path d="M52.2827 49.559H54.3329V58.3806C53.9973 58.545 53.6536 58.7053 53.3058 58.8657C52.9621 58.7053 52.6184 58.545 52.2827 58.3806V49.559Z" fill="#F1FAEE"/>
<path d="M59.2178 16.6567V23.9492H57.1636V16.369C57.847 16.4388 58.5344 16.5375 59.2178 16.6567Z" fill="#F1FAEE"/>
<path d="M57.1636 49.559H59.2178V55.6799C58.56 56.0991 57.8753 56.5102 57.1636 56.9131V49.559Z" fill="#F1FAEE"/>
<path d="M64.0985 17.8323V23.9656H62.0483V17.2445C62.5295 17.3637 63.0107 17.4912 63.492 17.6309L64.0985 17.8323Z" fill="#F1FAEE"/>
<path d="M62.0483 49.559H64.0985V52.0254C63.9004 52.2063 63.6941 52.383 63.492 52.5598C63.031 52.9599 62.5498 53.3504 62.0483 53.7313V49.559Z" fill="#F1FAEE"/>
<path d="M68.9792 19.6657V23.9491H66.929V18.8066C67.1595 18.8929 67.39 18.9875 67.6205 19.082C68.0734 19.267 68.5263 19.4766 68.9792 19.6657Z" fill="#F1FAEE"/>
<path d="M58.3475 3.62565C58.3326 3.58187 58.3048 3.54381 58.2679 3.51661C58.231 3.4894 58.1868 3.47437 58.1412 3.47355H54.6474L53.6203 0.15619C53.6025 0.116833 53.574 0.0834773 53.5382 0.0600953C53.5024 0.0367133 53.4607 0.024292 53.4181 0.024292C53.3755 0.024292 53.3338 0.0367133 53.298 0.0600953C53.2621 0.0834773 53.2336 0.116833 53.2159 0.15619L52.1888 3.4941H48.6949C48.6444 3.48668 48.593 3.49783 48.5498 3.52553C48.5067 3.55323 48.4747 3.59567 48.4596 3.64522C48.4445 3.69477 48.4472 3.74818 48.4674 3.79583C48.4876 3.84349 48.5238 3.88225 48.5696 3.90518L51.4407 5.98932L50.2275 9.32723C50.2122 9.37114 50.2105 9.41879 50.2228 9.46367C50.2351 9.50856 50.2608 9.54849 50.2963 9.57799C50.3342 9.60487 50.3794 9.61928 50.4257 9.61928C50.4719 9.61928 50.5171 9.60487 50.5551 9.57799L53.4343 7.48562L56.3175 9.57799C56.3545 9.6038 56.398 9.61808 56.4428 9.61909C56.4775 9.6185 56.5115 9.60955 56.542 9.59297C56.5726 9.5764 56.5988 9.55267 56.6185 9.52376C56.6383 9.49485 56.651 9.46157 56.6556 9.42669C56.6602 9.3918 56.6566 9.3563 56.645 9.32312L55.4117 5.9852L58.2868 3.90106C58.3256 3.86851 58.3526 3.82378 58.3635 3.77392C58.3745 3.72405 58.3689 3.67189 58.3475 3.62565Z" fill="#F1FAEE"/>
<path d="M71.8305 6.40862C71.8278 6.36202 71.8107 6.31747 71.7817 6.28131C71.7526 6.24515 71.7131 6.21922 71.6688 6.2072L68.276 5.35627L68.0698 1.86215C68.0647 1.81633 68.046 1.77318 68.0162 1.73848C67.9863 1.70378 67.9467 1.67919 67.9027 1.668C67.8587 1.65682 67.8124 1.65959 67.77 1.67592C67.7276 1.69225 67.6911 1.72137 67.6654 1.75938L65.8861 4.75199L62.4974 3.89697C62.4531 3.88519 62.4062 3.88845 62.3639 3.90626C62.3215 3.92407 62.2861 3.95545 62.2629 3.99562C62.2366 4.03272 62.2224 4.07731 62.2224 4.12305C62.2224 4.1688 62.2366 4.21338 62.2629 4.25048L64.5598 6.98002L62.5743 9.91507C62.5476 9.95281 62.5333 9.9981 62.5333 10.0446C62.5333 10.091 62.5476 10.1363 62.5743 10.1741C62.6025 10.2111 62.6418 10.238 62.6862 10.2506C62.7307 10.2632 62.7779 10.2608 62.8209 10.2439L66.1166 8.91617L68.4176 11.6539C68.4469 11.687 68.4847 11.7111 68.5267 11.7238C68.5729 11.7379 68.6221 11.7379 68.6683 11.7238C68.7099 11.7043 68.7443 11.6719 68.7668 11.6313C68.7893 11.5907 68.7987 11.544 68.7936 11.4977L68.3892 7.95837L71.6728 6.63882C71.7216 6.62547 71.7641 6.59507 71.793 6.55296C71.8218 6.51085 71.8351 6.45973 71.8305 6.40862Z" fill="#F1FAEE"/>
<path d="M35.3992 6.62649L38.6787 7.94604L38.2744 11.4854C38.2702 11.532 38.2804 11.5789 38.3036 11.6194C38.3268 11.6599 38.3618 11.6921 38.4038 11.7115C38.4485 11.7257 38.4965 11.7257 38.5412 11.7115C38.5833 11.6988 38.621 11.6746 38.6504 11.6416L40.9554 8.90384L44.247 10.2316C44.2901 10.2485 44.3373 10.2508 44.3818 10.2382C44.4262 10.2256 44.4655 10.1988 44.4937 10.1617C44.521 10.1242 44.5357 10.0788 44.5357 10.0322C44.5357 9.98562 44.521 9.94023 44.4937 9.90274L42.5123 6.96769L44.8051 4.23815C44.8348 4.2031 44.8527 4.15936 44.8563 4.11326C44.8599 4.06715 44.849 4.02108 44.8251 3.98171C44.8012 3.94234 44.7657 3.91171 44.7235 3.89426C44.6814 3.8768 44.6349 3.87344 44.5908 3.88464L41.2182 4.75199L39.4309 1.75938C39.4052 1.72137 39.3687 1.69225 39.3263 1.67592C39.2839 1.65959 39.2376 1.65682 39.1936 1.668C39.1496 1.67919 39.11 1.70378 39.0801 1.73848C39.0503 1.77318 39.0315 1.81633 39.0265 1.86215L38.8203 5.35627L35.4275 6.2072C35.3837 6.22029 35.3449 6.24652 35.316 6.28247C35.2871 6.31841 35.2696 6.36238 35.2658 6.40862C35.2631 6.45451 35.2745 6.50012 35.2984 6.53915C35.3223 6.57818 35.3575 6.60869 35.3992 6.62649Z" fill="#F1FAEE"/>
</g>
<defs>
<clipPath id="clip0">
<rect width="106" height="64" fill="white"/>
</clipPath>
</defs>
</svg>
